<svg width="121" height="120" viewBox="0 0 121 120" fill="none" xmlns="http://www.w3.org/2000/svg">
<path d="M75.5 77.4375L60.875 92.625L46.4375 77.4375C46.4375 77.4375 27.5 82.125 22.25 83.4375C17 84.75 15.5 96.9375 15.5 105.562" stroke="#542087" stroke-width="2" stroke-miterlimit="10" stroke-linecap="round" stroke-linejoin="round"/>
<path d="M79.4375 27.5625C77 15.9375 65.75 14.0625 60.5 14.0625C53.9375 14.0625 43.25 15.5625 41.5625 29.4375C40.25 40.125 45.125 53.8125 48.6875 58.5C52.8125 63.5625 56.375 66.1875 61.4375 66.1875C66.125 66.1875 69.3125 63.9375 73.4375 57.75C77.1875 51.9375 81.5 37.3125 79.4375 27.5625Z" stroke="#542087" stroke-width="2" stroke-miterlimit="10" stroke-linecap="round" stroke-linejoin="round"/>
<path d="M114.875 105C114.875 107.063 113.188 108.75 111.125 108.75H81.125C79.0625 108.75 77.375 107.063 77.375 105V86.25C77.375 84.1875 79.0625 82.5 81.125 82.5H111.125C113.188 82.5 114.875 84.1875 114.875 86.25V105Z" stroke="#542087" stroke-width="2" stroke-miterlimit="10" stroke-linecap="round" stroke-linejoin="round"/>
<path d="M84.5 82.125V78.375C84.5 71.8125 89.75 66.75 96.125 66.75C102.5 66.75 107.75 72 107.75 78.375V82.125" stroke="#542087" stroke-width="2" stroke-miterlimit="10" stroke-linecap="round" stroke-linejoin="round"/>
<path d="M96.125 97.125C97.7819 97.125 99.125 95.7819 99.125 94.125C99.125 92.4682 97.7819 91.125 96.125 91.125C94.4681 91.125 93.125 92.4682 93.125 94.125C93.125 95.7819 94.4681 97.125 96.125 97.125Z" stroke="#542087" stroke-width="2" stroke-miterlimit="10" stroke-linecap="round" stroke-linejoin="round"/>
<path d="M96.125 97.3125V101.812" stroke="#542087" stroke-width="2" stroke-miterlimit="10" stroke-linecap="round" stroke-linejoin="round"/>
</svg>
