<svg width="36" height="36" viewBox="0 0 36 36" fill="none" xmlns="http://www.w3.org/2000/svg">
<path d="M7.125 10.125C7.125 8.46814 8.46814 7.125 10.125 7.125H25.875C27.5319 7.125 28.875 8.46814 28.875 10.125V21.375C28.875 23.0319 27.5319 24.375 25.875 24.375H21.9375L18 28.875L14.0625 24.375H10.125C8.46814 24.375 7.125 23.0319 7.125 21.375V10.125Z" stroke="#542087" stroke-width="2" stroke-linecap="round" stroke-linejoin="round"/>
<path opacity="0.5" d="M14 16C14 16.5522 13.5523 17 13 17C12.4477 17 12 16.5522 12 16C12 15.4478 12.4477 15 13 15C13.5523 15 14 15.4478 14 16Z" fill="#542087" stroke="#542087" stroke-linecap="round" stroke-linejoin="round"/>
<path opacity="0.5" d="M19 16C19 16.5522 18.5522 17 18 17C17.4478 17 17 16.5522 17 16C17 15.4478 17.4478 15 18 15C18.5522 15 19 15.4478 19 16Z" fill="#542087" stroke="#542087" stroke-linecap="round" stroke-linejoin="round"/>
<path opacity="0.5" d="M24 16C24 16.5522 23.5522 17 23 17C22.4478 17 22 16.5522 22 16C22 15.4478 22.4478 15 23 15C23.5522 15 24 15.4478 24 16Z" fill="#542087" stroke="#542087" stroke-linecap="round" stroke-linejoin="round"/>
</svg>
