<svg width="36" height="36" viewBox="0 0 36 36" fill="none" xmlns="http://www.w3.org/2000/svg">
<path d="M28.875 15C28.875 19.0933 26.775 22.875 24.75 22.875C22.725 22.875 20.625 19.0933 20.625 15C20.625 10.9066 22.725 7.125 24.75 7.125C26.775 7.125 28.875 10.9066 28.875 15Z" stroke="#542087" stroke-width="2"/>
<path d="M24.75 22.875C24.75 22.875 12 20.25 10.5 19.875C9 19.5 7.125 17.5339 7.125 15C7.125 12.466 9 10.5 10.5 10.125C12 9.75 24.75 7.125 24.75 7.125" stroke="#542087" stroke-width="2"/>
<path opacity="0.5" d="M12 20V25.2174C12 26.7542 12.9949 28 14.2222 28H14.7778C16.0051 28 17 26.7542 17 25.2174V21.3913" stroke="#542087" stroke-width="2"/>
</svg>
