<svg width="18" height="18" viewBox="0 0 18 18" fill="none" xmlns="http://www.w3.org/2000/svg">
<g clip-path="url(#clip0_6182_3386)">
<path d="M8.39775 13.7619C8.01806 14.1416 7.63661 14.523 7.25693 14.9027C6.65048 15.5092 6.04579 16.1139 5.43935 16.7203C5.30224 16.8574 5.16337 16.9963 5.02626 17.1334C5.00165 17.158 4.97528 17.1809 4.94716 17.202C4.80302 17.3074 4.62196 17.3496 4.44794 17.3303C4.29501 17.3127 4.14736 17.2477 4.0331 17.1334C3.65341 16.7537 3.27196 16.3723 2.89228 15.9926C2.28759 15.3861 1.68114 14.7797 1.07646 14.175C0.939347 14.0379 0.80048 13.899 0.663371 13.7619C0.403214 13.5018 0.383878 13.0236 0.663371 12.767C0.942863 12.5104 1.3788 12.4893 1.65653 12.767C2.03622 13.1467 2.41767 13.5281 2.79736 13.9078C3.14189 14.2523 3.48466 14.5951 3.82919 14.9396V1.99863C3.82919 1.8 3.82743 1.60312 3.82919 1.40449V1.37812C3.82919 1.01074 4.15263 0.657421 4.53232 0.674999C4.91376 0.692578 5.23544 0.984374 5.23544 1.37812V14.9361C5.82079 14.3508 6.40614 13.7654 6.9915 13.1801C7.12861 13.043 7.26747 12.9041 7.40458 12.767C7.66474 12.5068 8.14286 12.4875 8.3995 12.767C8.6579 13.0482 8.67724 13.4842 8.39775 13.7619Z" fill="black"/>
<path d="M7.24282 9.36211C6.84731 9.36211 6.55551 9.68379 6.53969 10.0652C6.52211 10.4449 6.87543 10.7684 7.24282 10.7684C7.24985 10.7684 7.25512 10.7684 7.2604 10.7684C7.64887 10.7736 8.03911 10.7684 8.42758 10.7684C9.22739 10.7684 10.0254 10.7684 10.8252 10.7684C11.7498 10.7684 12.6727 10.7684 13.5973 10.7684C14.3602 10.7684 15.1248 10.7684 15.8877 10.7684C16.2059 10.7684 16.5241 10.7684 16.8422 10.7684C17.236 10.7684 17.5278 10.4467 17.5454 10.0652C17.5629 9.68555 17.2096 9.36211 16.8422 9.36211C16.8352 9.36211 16.8299 9.36211 16.8247 9.36211C16.4362 9.35683 16.0459 9.36211 15.6575 9.36211C14.8577 9.36211 14.0596 9.36211 13.2598 9.36211C12.3352 9.36211 11.4123 9.36211 10.4877 9.36211C9.72485 9.36211 8.9602 9.36211 8.19731 9.36211C7.87915 9.36211 7.56098 9.36211 7.24282 9.36211Z" fill="black"/>
<path d="M14.028 7.2C14.4217 7.2 14.7135 6.87832 14.7311 6.49688C14.7487 6.11719 14.3954 5.79375 14.028 5.79375C14.0227 5.79375 14.0192 5.79375 14.0157 5.79375C13.7414 5.78848 13.4672 5.79375 13.193 5.79375C12.627 5.79375 12.061 5.79375 11.495 5.79375C10.8428 5.79375 10.1907 5.79375 9.53852 5.79375C8.99711 5.79375 8.45571 5.79375 7.9143 5.79375C7.69106 5.79375 7.46606 5.79375 7.24282 5.79375C6.84907 5.79375 6.55727 6.11543 6.53969 6.49688C6.52211 6.87656 6.87543 7.2 7.24282 7.2C7.24809 7.2 7.25161 7.2 7.25512 7.2C7.52934 7.20527 7.80356 7.2 8.07778 7.2C8.64379 7.2 9.20981 7.2 9.77582 7.2C10.428 7.2 11.0801 7.2 11.7323 7.2C12.2737 7.2 12.8151 7.2 13.3565 7.2C13.5797 7.2 13.8047 7.2 14.028 7.2Z" fill="black"/>
<path d="M11.2155 3.63164C11.6092 3.63164 11.901 3.30996 11.9186 2.92852C11.9362 2.54883 11.5829 2.22539 11.2155 2.22539C11.052 2.22539 10.8868 2.22539 10.7215 2.22539C10.0114 2.22539 9.30122 2.22539 8.59106 2.22539C8.14106 2.22539 7.69282 2.22539 7.24282 2.22539C6.84907 2.22539 6.55727 2.54707 6.53969 2.92852C6.52211 3.3082 6.87543 3.63164 7.24282 3.63164C7.40629 3.63164 7.57153 3.63164 7.73676 3.63164C8.44692 3.63164 9.15707 3.63164 9.86723 3.63164C10.3172 3.63164 10.7655 3.63164 11.2155 3.63164Z" fill="black"/>
</g>
<defs>
<clipPath id="clip0_6182_3386">
<rect width="18" height="18" fill="white"/>
</clipPath>
</defs>
</svg>
