<svg width="24" height="24" viewBox="0 0 24 24" fill="none" xmlns="http://www.w3.org/2000/svg">
<path d="M9 4.75H7.75C6.64543 4.75 5.75 5.64543 5.75 6.75V17.25C5.75 18.3546 6.64543 19.25 7.75 19.25H17.25C18.3546 19.25 19.25 18.3546 19.25 17.25V6.75C19.25 5.64543 18.3546 4.75 17.25 4.75H12.5" stroke="#1A1A1A" stroke-width="2" stroke-linecap="round" stroke-linejoin="round"/>
<path d="M12.5 11C13.3284 11 14 10.3284 14 9.5C14 8.67157 13.3284 8 12.5 8C11.6716 8 11 8.67157 11 9.5C11 10.3284 11.6716 11 12.5 11Z" fill="#1A1A1A"/>
<path d="M9.84818 15H15.1518C15.7395 15 16.1922 14.4389 15.9178 13.8619C15.514 13.0132 14.5937 12 12.5 12C10.4063 12 9.48594 13.0132 9.08222 13.8619C8.80776 14.4389 9.26047 15 9.84818 15Z" fill="#1A1A1A"/>
<path d="M3.75 12.25H5.75" stroke="#1A1A1A" stroke-width="2" stroke-linecap="round" stroke-linejoin="round"/>
<path d="M3.75 8.25H5.75" stroke="#1A1A1A" stroke-width="2" stroke-linecap="round" stroke-linejoin="round"/>
<path d="M3.75 16.25H5.75" stroke="#1A1A1A" stroke-width="2" stroke-linecap="round" stroke-linejoin="round"/>
</svg>
