<svg width="40" height="40" viewBox="0 0 40 40" fill="none" xmlns="http://www.w3.org/2000/svg">
<path fill-rule="evenodd" clip-rule="evenodd" d="M36.6673 19.9999C36.6673 29.2047 29.2054 36.6666 20.0007 36.6666H4.99015C3.51762 36.6666 2.78017 34.8714 3.82141 33.8214L7.08315 30.5324C4.73956 27.6616 3.33398 23.9949 3.33398 19.9999C3.33398 10.7952 10.7959 3.33325 20.0007 3.33325C29.2054 3.33325 36.6673 10.7952 36.6673 19.9999ZM25.3458 14.6547C25.9967 15.3056 25.9967 16.3609 25.3458 17.0118L22.3577 19.9999L25.3458 22.9881C25.9967 23.6389 25.9967 24.6942 25.3458 25.3451C24.695 25.996 23.6397 25.996 22.9888 25.3451L20.0007 22.3569L17.0125 25.3451C16.3616 25.996 15.3063 25.996 14.6555 25.3451C14.0046 24.6942 14.0046 23.6389 14.6555 22.9881L17.6436 19.9999L14.6555 17.0118C14.0046 16.3609 14.0046 15.3056 14.6555 14.6547C15.3063 14.0039 16.3616 14.0039 17.0125 14.6547L20.0007 17.6429L22.9888 14.6547C23.6397 14.0039 24.695 14.0039 25.3458 14.6547Z" fill="#FF507A"/>
</svg>
