<svg width="124" height="124" viewBox="0 0 124 124" fill="none" xmlns="http://www.w3.org/2000/svg">
<path d="M53.3706 37.2546V18.0085C53.3706 16.8652 52.8907 15.774 52.0488 15.0003C51.2056 14.2265 50.0821 13.8421 48.9389 13.9388C39.4355 14.7523 32.2695 22.5655 32.2695 32.1135V37.2533H40.4374V32.1135C40.4374 28.5535 42.3408 25.3592 45.2027 23.5637V37.2533H53.3706V37.2546Z" fill="#542087"/>
<path d="M42.4244 68.8671C44.4505 68.8671 46.1084 67.2092 46.1084 65.1831V59.4791C46.1084 57.4529 44.4505 55.795 42.4244 55.795H41.7114C39.6852 55.795 38.0273 57.4529 38.0273 59.4791V65.1831C38.0273 67.2092 39.6852 68.8671 41.7114 68.8671H42.4244Z" fill="#542087"/>
<path d="M113.716 39.7804H58.6884H30.4784H27.3028V21.1445C27.3028 20.0012 26.8229 18.91 25.9809 18.1362C25.139 17.3637 24.0143 16.9793 22.871 17.0748C13.3664 17.8882 6.19922 25.7015 6.19922 35.2482V105.73C6.19922 107.985 8.02822 109.813 10.2825 109.813C12.5381 109.813 14.3659 107.984 14.3659 105.73V35.2482C14.3659 31.6126 16.2469 28.432 19.1337 26.66V43.8638C19.1337 46.1193 20.9627 47.9471 23.217 47.9471H92.3916V75.0547C92.3916 75.1428 92.4127 75.2258 92.4177 75.3126C91.7778 75.8111 91.1231 76.2972 90.4535 76.7696C77.958 85.5835 61.3619 88.7232 49.996 88.7232H37.0616C34.806 88.7232 32.9783 90.5522 32.9783 92.8066V104.207C32.7166 104.745 34.3981 110.074 36.6536 110.074H37.0616C39.3171 110.074 41.1449 108.245 41.1449 105.99V96.8911H49.9973C66.3405 96.8911 83.2243 91.8642 95.1618 83.4445C109.125 73.5977 117.799 58.4313 117.799 43.865C117.799 41.6094 115.97 39.7804 113.716 39.7804Z" fill="#542087"/>
</svg>
