<svg width="36" height="7" viewBox="0 0 36 7" fill="none" xmlns="http://www.w3.org/2000/svg">
<path fill-rule="evenodd" clip-rule="evenodd" d="M8.84924 1.07001C7.57444 1.07001 6.53564 2.10961 6.53564 3.38361C6.53564 4.65761 7.57484 5.69761 8.84924 5.69761C10.1236 5.69761 11.1628 4.65761 11.1628 3.38361C11.1628 2.10961 10.1232 1.07001 8.84924 1.07001Z" fill="#542087"/>
<path fill-rule="evenodd" clip-rule="evenodd" d="M17.7591 0C15.8955 0 14.3755 1.52 14.3755 3.3836C14.3755 5.2468 15.8955 6.7672 17.7591 6.7672C19.6227 6.7672 21.1423 5.2468 21.1423 3.3836C21.1423 1.52 19.6227 0 17.7591 0Z" fill="#542087"/>
<path fill-rule="evenodd" clip-rule="evenodd" d="M1.6884 1.69482C0.7588 1.69482 0 2.45322 0 3.38362C0 4.31322 0.7584 5.07242 1.6884 5.07242C2.6184 5.07242 3.3772 4.31362 3.3772 3.38362C3.3772 2.45362 2.6188 1.69482 1.6884 1.69482Z" fill="#542087"/>
<path fill-rule="evenodd" clip-rule="evenodd" d="M26.6726 1.07001C25.3986 1.07001 24.3594 2.10961 24.3594 3.38361C24.3594 4.65761 25.399 5.69761 26.6726 5.69761C27.947 5.69761 28.9866 4.65761 28.9866 3.38361C28.9866 2.10961 27.947 1.07001 26.6726 1.07001Z" fill="#542087"/>
<path fill-rule="evenodd" clip-rule="evenodd" d="M33.8337 1.69482C32.9033 1.69482 32.1445 2.45322 32.1445 3.38362C32.1445 4.31322 32.9029 5.07242 33.8337 5.07242C34.7633 5.07242 35.5217 4.31362 35.5217 3.38362C35.5213 2.45362 34.7633 1.69482 33.8337 1.69482Z" fill="#542087"/>
</svg>
