<svg width="36" height="36" viewBox="0 0 36 36" fill="none" xmlns="http://www.w3.org/2000/svg">
<path d="M28 18V27C28 28.6569 26.6569 30 25 30H11C9.34315 30 8 28.6569 8 27V18" stroke="#542087" stroke-width="2" stroke-linecap="round" stroke-linejoin="round"/>
<path d="M30 12H6V18H30V12Z" stroke="#542087" stroke-width="2" stroke-linecap="round" stroke-linejoin="round"/>
<path d="M18 30V12" stroke="#542087" stroke-width="2" stroke-linecap="round" stroke-linejoin="round"/>
<path opacity="0.5" d="M17 12H11.8571C11.0994 12 10.3727 11.6839 9.83684 11.1213C9.30102 10.5587 9 9.79565 9 9C9 8.20435 9.30102 7.44129 9.83684 6.87868C10.3727 6.31607 11.0994 6 11.8571 6C15.8571 6 17 12 17 12Z" stroke="#542087" stroke-width="2" stroke-linecap="round" stroke-linejoin="round"/>
<path opacity="0.5" d="M19 12H24.1429C24.9006 12 25.6273 11.6839 26.1632 11.1213C26.699 10.5587 27 9.79565 27 9C27 8.20435 26.699 7.44129 26.1632 6.87868C25.6273 6.31607 24.9006 6 24.1429 6C20.1429 6 19 12 19 12Z" stroke="#542087" stroke-width="2" stroke-linecap="round" stroke-linejoin="round"/>
</svg>
