<svg width="46" height="37" viewBox="0 0 46 37" fill="none" xmlns="http://www.w3.org/2000/svg">
<path fill-rule="evenodd" clip-rule="evenodd" d="M42 37H4C1.791 37 0 35.209 0 33V12C0 9.791 1.791 8 4 8H19V4C19 1.791 20.791 0 23 0C25.209 0 27 1.791 27 4V8H42C44.209 8 46 9.791 46 12V33C46 35.209 44.209 37 42 37ZM16.014 29.488C16.014 29.491 16.014 29.492 16.014 29.492C16.01 29.492 15.996 28.711 15.996 28.711C15.996 28.711 17.162 28.11 18.027 27.333C18.534 26.916 18.768 25.971 18.768 25.971C18.905 25.143 19.006 23.094 19.006 22.268C19.006 20.206 17.973 17.988 14.999 17.988V17.98V17.987C12.025 17.987 10.992 20.206 10.992 22.267C10.992 23.093 11.094 25.142 11.23 25.97C11.23 25.97 11.464 26.915 11.971 27.332C12.836 28.109 14.002 28.71 14.002 28.71C14.002 28.71 13.988 29.491 13.984 29.491C13.984 29.491 13.984 29.49 13.984 29.487C13.984 29.487 14.013 30.633 14.013 30.974C14.013 32.336 12.648 32.992 11.79 32.992C11.788 32.992 11.787 32.992 11.787 32.992C9.194 33.105 8.582 33.968 8.577 33.976C8.419 34.23 8.199 34.482 7.998 35H22.002C21.801 34.482 21.581 34.23 21.42 33.978C21.415 33.969 20.803 33.107 18.21 32.994C18.21 32.994 18.209 32.994 18.207 32.994C17.35 32.994 15.984 32.339 15.984 30.976C15.984 30.634 16.014 29.488 16.014 29.488ZM25 4C25 2.896 24.104 2 23 2C21.896 2 21 2.896 21 4V10C21 11.104 21.896 12 23 12C24.104 12 25 11.104 25 10V4ZM44 12C44 10.896 43.104 10 42 10H27C27 12.209 25.209 14 23 14C20.791 14 19 12.209 19 10H4C2.896 10 2 10.896 2 12V33C2 34.104 2.896 35 4 35H5.797C6.028 34.411 6.453 33.451 6.957 32.76C6.982 32.746 7.805 31.021 11.955 30.97C11.961 30.949 11.965 29.928 11.977 29.943C11.657 29.741 11.24 29.427 10.926 29.127C10.671 28.971 9.765 28.098 9.474 26.544C9.387 26.002 8.986 23.445 8.986 22.378C8.986 19.207 10.251 15.997 14.939 15.997C14.96 15.997 15.039 15.997 15.06 15.997C19.748 15.997 21.013 19.207 21.013 22.378C21.013 23.445 20.612 26.002 20.525 26.544C20.234 28.098 19.328 28.971 19.073 29.127C18.76 29.428 18.343 29.741 18.022 29.943C18.035 29.928 18.039 30.95 18.044 30.97C22.195 31.021 23.018 32.746 23.042 32.76C23.546 33.451 23.971 34.411 24.202 35H42C43.104 35 44 34.104 44 33V12ZM39 21H27C26.447 21 26 20.553 26 20C26 19.447 26.447 19 27 19H39C39.553 19 40 19.447 40 20C40 20.553 39.553 21 39 21ZM27 25H29C29.553 25 30 25.447 30 26C30 26.553 29.553 27 29 27H27C26.447 27 26 26.553 26 26C26 25.447 26.447 25 27 25ZM27 29H33C33.553 29 34 29.447 34 30C34 30.553 33.553 31 33 31H27C26.447 31 26 30.553 26 30C26 29.447 26.447 29 27 29ZM31 26C31 25.447 31.447 25 32 25H36C36.553 25 37 25.447 37 26C37 26.553 36.553 27 36 27H32C31.447 27 31 26.553 31 26ZM22 4H24V6H22V4Z" fill="black"/>
</svg>
