<svg width="24" height="24" viewBox="0 0 24 24" fill="none" xmlns="http://www.w3.org/2000/svg">
<path d="M5.75 11.75C5.75 11.1977 6.19772 10.75 6.75 10.75H17.25C17.8023 10.75 18.25 11.1977 18.25 11.75V17.25C18.25 18.3546 17.3546 19.25 16.25 19.25H7.75C6.64543 19.25 5.75 18.3546 5.75 17.25V11.75Z" stroke="#1A1A1A" stroke-width="2" stroke-linecap="round" stroke-linejoin="round"/>
<path d="M9.00143 10V9.86322C9.00143 8.50563 8.93516 6.99239 9.70448 6.02078C10.1432 5.4667 10.8531 5 12 5C13.1469 5 13.8568 5.4667 14.2955 6.02078C15.0648 6.99239 14.9986 8.50563 14.9986 9.86322V10" stroke="#1A1A1A" stroke-width="2" stroke-linecap="round" stroke-linejoin="round"/>
</svg>
