<svg width="24" height="24" viewBox="0 0 24 24" fill="none" xmlns="http://www.w3.org/2000/svg">
<path d="M12 16.2109C15.1299 16.2109 17.8986 17.5088 19.5918 19.4988C19.6056 19.515 19.6198 19.531 19.6335 19.5473C19.7013 19.6284 19.7678 19.7102 19.832 19.7935L13.9427 23.0065L13.7129 23.1228C13.5631 23.1926 13.4095 23.2514 13.2539 23.3018C13.2375 23.3072 13.2209 23.3121 13.2044 23.3172C13.1444 23.3358 13.0841 23.3532 13.0234 23.369C13.0024 23.3744 12.9814 23.3798 12.9603 23.3849C12.8976 23.4002 12.8347 23.4137 12.7715 23.4258C12.7582 23.4284 12.745 23.4311 12.7318 23.4335C12.6675 23.4453 12.603 23.4549 12.5384 23.4636C12.5193 23.4661 12.5003 23.469 12.4811 23.4712C12.4185 23.4787 12.3558 23.484 12.293 23.4885C12.2749 23.4898 12.257 23.4919 12.2389 23.493C12.0795 23.5023 11.9198 23.5024 11.7604 23.493C11.7424 23.4919 11.7244 23.4898 11.7064 23.4885C11.6436 23.484 11.5808 23.4787 11.5182 23.4712C11.4991 23.469 11.48 23.4661 11.4609 23.4636C11.3963 23.4549 11.3318 23.4453 11.2676 23.4335C11.2543 23.4311 11.2411 23.4284 11.2279 23.4258C11.1647 23.4136 11.1017 23.4002 11.0391 23.3849C11.018 23.3798 10.9969 23.3744 10.9759 23.369C10.9152 23.3532 10.855 23.3358 10.7949 23.3172C10.7784 23.3121 10.7619 23.3072 10.7454 23.3018C10.5901 23.2514 10.4367 23.1925 10.2871 23.1228L10.0573 23.0065L4.16732 19.7935C4.23148 19.7103 4.29748 19.6283 4.36523 19.5473C4.37892 19.531 4.39306 19.515 4.4069 19.4988C6.10008 17.5084 8.86975 16.2109 12 16.2109Z" fill="#542087"/>
<path d="M12 5.73698C14.2091 5.73698 16 7.49549 16 9.66471C16 11.8339 14.2091 13.5924 12 13.5924C9.79086 13.5924 8 11.8339 8 9.66471C8 7.49549 9.79086 5.73698 12 5.73698Z" fill="#542087"/>
<path d="M24 12.8982L23.9954 13.1648C23.9229 15.2683 22.9941 17.2299 21.4603 18.637C20.9274 17.9443 20.2966 17.3188 19.5892 16.7709C20.686 15.7908 21.3333 14.3908 21.3333 12.8982V3.11849H2.66667V12.8982C2.66672 14.3906 3.31358 15.7908 4.41016 16.7709C3.70276 17.3188 3.07188 17.9443 2.53906 18.637C1.00542 17.2299 0.0770843 15.2682 0.00455729 13.1648L0 12.8982V0.5H24V12.8982Z" fill="#542087"/>
</svg>
