<svg width="36" height="36" viewBox="0 0 36 36" fill="none" xmlns="http://www.w3.org/2000/svg">
<path d="M7.625 28.8753H28.375C29.2034 28.8753 29.875 28.2038 29.875 27.3753V12.625C29.875 11.7966 29.2034 11.125 28.375 11.125H7.625C6.79658 11.125 6.125 11.7966 6.125 12.625V27.3753C6.125 28.2038 6.79658 28.8753 7.625 28.8753Z" stroke="#542087" stroke-width="2" stroke-linecap="round" stroke-linejoin="round"/>
<path opacity="0.5" d="M21 18H25" stroke="#542087" stroke-width="2" stroke-linecap="round" stroke-linejoin="round"/>
<path opacity="0.5" d="M21 22H25" stroke="#542087" stroke-width="2" stroke-linecap="round" stroke-linejoin="round"/>
<path d="M14 20C15.1046 20 16 19.1046 16 18C16 16.8954 15.1046 16 14 16C12.8954 16 12 16.8954 12 18C12 19.1046 12.8954 20 14 20Z" fill="#5A2989"/>
<path d="M10.9693 25H17.0307C17.7023 25 18.2197 24.2519 17.9061 23.4826C17.4446 22.3509 16.3928 21 14 21C11.6072 21 10.5554 22.3509 10.094 23.4826C9.7803 24.2519 10.2977 25 10.9693 25Z" fill="#5A2989"/>
<path opacity="0.5" d="M16 9.88235C16 8.84276 16.7959 8 17.7778 8H18.2222C19.2041 8 20 8.84276 20 9.88235V12.1176C20 13.1573 19.2041 14 18.2222 14H17.7778C16.7959 14 16 13.1573 16 12.1176V9.88235Z" stroke="#542087" stroke-width="2" stroke-linecap="round" stroke-linejoin="round"/>
</svg>
