<svg width="16" height="16" viewBox="0 0 16 16" fill="none" xmlns="http://www.w3.org/2000/svg">
<path d="M8 0C3.58852 0 0 3.58819 0 8C0 12.4112 3.58819 16 8 16C12.4112 16 16 12.4112 16 8C15.9997 3.58819 12.4108 0 8 0ZM8.97585 12.406C8.97585 12.6333 8.87761 12.8399 8.68439 13.0191C8.49345 13.1964 8.23778 13.2858 7.92421 13.2858C7.6012 13.2858 7.3348 13.197 7.13345 13.0211C6.92722 12.8418 6.82313 12.6346 6.82313 12.406V12.0127C6.82313 11.784 6.92787 11.5768 7.13345 11.3976C7.3348 11.2222 7.6012 11.1334 7.92421 11.1334C8.23778 11.1334 8.49345 11.2235 8.68439 11.4002C8.87761 11.5794 8.97585 11.786 8.97585 12.0127V12.406ZM11.1429 6.51378C11.0163 6.76165 10.8547 6.97959 10.6621 7.1624C10.4731 7.34098 10.2669 7.50199 10.0483 7.64154C9.83915 7.77425 9.64235 7.91868 9.46345 8.06928C9.28812 8.21729 9.14142 8.38253 9.02659 8.56111C8.9173 8.73123 8.86167 8.94429 8.86167 9.19314V9.44035C8.86167 9.60429 8.78133 9.77572 8.62259 9.9517C8.4619 10.129 8.24689 10.2243 7.98471 10.235L7.93039 10.2363C7.66431 10.2363 7.44767 10.1602 7.28633 10.0089C7.11328 9.8476 7.02578 9.66577 7.02578 9.46963C7.02578 9.01098 7.08953 8.62031 7.21574 8.30772C7.34098 7.99772 7.49549 7.72871 7.67634 7.50785C7.85655 7.28731 8.05953 7.09474 8.27942 6.9347C8.48955 6.78279 8.68342 6.63219 8.85614 6.48874C9.02301 6.34952 9.16646 6.20086 9.28292 6.0483C9.38961 5.90681 9.44198 5.73538 9.44198 5.52525C9.44198 5.1785 9.34797 4.92998 9.15345 4.76604C8.95698 4.5995 8.68439 4.51525 8.34447 4.51525C8.11808 4.51525 7.92356 4.52923 7.76677 4.55721C7.61356 4.58421 7.47239 4.62975 7.34586 4.69285C7.22095 4.75466 7.10352 4.84118 6.99618 4.94852C6.88363 5.06107 6.76523 5.20322 6.64357 5.37172C6.53428 5.52558 6.37196 5.6417 6.16215 5.71717C5.94682 5.79491 5.70773 5.77409 5.45824 5.65471C5.23412 5.54282 5.09718 5.39676 5.05034 5.21948C5.00642 5.05684 5.00642 4.88607 5.04969 4.71302C5.08156 4.56567 5.16972 4.38383 5.31967 4.16167C5.46637 3.94373 5.67553 3.73197 5.94161 3.53127C6.20639 3.33154 6.54241 3.15687 6.93828 3.01309C7.3374 2.86899 7.81491 2.7958 8.35879 2.7958C8.89485 2.7958 9.36001 2.8768 9.74059 3.03716C10.1231 3.1985 10.4357 3.41352 10.6689 3.67699C10.9015 3.94015 11.0729 4.24234 11.179 4.57542C11.2837 4.90526 11.3371 5.24941 11.3371 5.59876C11.3371 5.953 11.2717 6.26169 11.1429 6.51378Z" fill="#474A56"/>
</svg>
