<svg width="36" height="9" viewBox="0 0 36 9" fill="none" xmlns="http://www.w3.org/2000/svg">
<path d="M4 8.5C6.20914 8.5 8 6.70914 8 4.5C8 2.29086 6.20914 0.5 4 0.5C1.79086 0.5 0 2.29086 0 4.5C0 6.70914 1.79086 8.5 4 8.5Z" fill="#542087"/>
<path d="M18 8.5C20.2091 8.5 22 6.70914 22 4.5C22 2.29086 20.2091 0.5 18 0.5C15.7909 0.5 14 2.29086 14 4.5C14 6.70914 15.7909 8.5 18 8.5Z" fill="#542087"/>
<path d="M32 8.5C34.2091 8.5 36 6.70914 36 4.5C36 2.29086 34.2091 0.5 32 0.5C29.7909 0.5 28 2.29086 28 4.5C28 6.70914 29.7909 8.5 32 8.5Z" fill="#542087"/>
</svg>
