<svg width="111" height="111" viewBox="0 0 111 111" fill="none" xmlns="http://www.w3.org/2000/svg">
<g clip-path="url(#clip0_6100_25474)">
<path d="M38.1562 80.4057L31.2187 73.4647L26.3243 78.3557L38.1562 90.1876L58.9687 69.3751L54.0778 64.4841L38.1562 80.4057Z" fill="#5A2989"/>
<path d="M97.125 104.062H83.25V97.125H97.125V55.5H83.25V27.75C83.2459 24.0714 81.7827 20.5446 79.1815 17.9435C76.5804 15.3423 73.0536 13.8791 69.375 13.875V6.9375C74.8929 6.94365 80.1831 9.13837 84.0849 13.0401C87.9866 16.9419 90.1813 22.2321 90.1875 27.75V48.5625H97.125C98.9643 48.5644 100.728 49.296 102.028 50.5966C103.329 51.8972 104.061 53.6607 104.062 55.5V97.125C104.061 98.9643 103.329 100.728 102.028 102.028C100.728 103.329 98.9643 104.061 97.125 104.062Z" fill="#5A2989"/>
<path d="M69.375 48.5625H62.4375V27.75C62.4375 22.2302 60.2448 16.9364 56.3417 13.0333C52.4386 9.13024 47.1448 6.9375 41.625 6.9375C36.1052 6.9375 30.8114 9.13024 26.9083 13.0333C23.0052 16.9364 20.8125 22.2302 20.8125 27.75V48.5625H13.875C12.0351 48.5625 10.2705 49.2934 8.96945 50.5944C7.66841 51.8955 6.9375 53.6601 6.9375 55.5V97.125C6.9375 98.9649 7.66841 100.73 8.96945 102.031C10.2705 103.332 12.0351 104.062 13.875 104.062H69.375C71.2149 104.062 72.9795 103.332 74.2806 102.031C75.5816 100.73 76.3125 98.9649 76.3125 97.125V55.5C76.3125 53.6601 75.5816 51.8955 74.2806 50.5944C72.9795 49.2934 71.2149 48.5625 69.375 48.5625ZM27.75 27.75C27.75 24.0701 29.2118 20.541 31.8139 17.9389C34.416 15.3368 37.9451 13.875 41.625 13.875C45.3049 13.875 48.834 15.3368 51.4361 17.9389C54.0382 20.541 55.5 24.0701 55.5 27.75V48.5625H27.75V27.75ZM69.375 97.125H13.875V55.5H69.375V97.125Z" fill="#5A2989"/>
</g>
<defs>
<clipPath id="clip0_6100_25474">
<rect width="111" height="111" fill="white"/>
</clipPath>
</defs>
</svg>
