<svg width="37" height="36" viewBox="0 0 37 36" fill="none" xmlns="http://www.w3.org/2000/svg">
<path d="M18.333 16.875C21.0254 16.875 23.208 14.6924 23.208 12C23.208 9.30761 21.0254 7.125 18.333 7.125C15.6406 7.125 13.458 9.30761 13.458 12C13.458 14.6924 15.6406 16.875 18.333 16.875Z" stroke="#542087" stroke-width="2" stroke-linecap="round" stroke-linejoin="round"/>
<path d="M18.7083 28.875H10.7576C8.98838 28.875 7.66816 27.3155 8.5696 25.7931C9.87703 23.5851 12.6923 21 18.7083 21" stroke="#542087" stroke-width="2" stroke-linecap="round" stroke-linejoin="round"/>
<path opacity="0.5" d="M25.833 21.125C26.3853 21.125 26.833 21.5727 26.833 22.125V24.5H29.208C29.7603 24.5 30.208 24.9477 30.208 25.5C30.208 26.0523 29.7603 26.5 29.208 26.5H26.833V28.875C26.833 29.4273 26.3853 29.875 25.833 29.875C25.2807 29.875 24.833 29.4273 24.833 28.875V26.5H22.458C21.9057 26.5 21.458 26.0523 21.458 25.5C21.458 24.9477 21.9057 24.5 22.458 24.5H24.833V22.125C24.833 21.5727 25.2807 21.125 25.833 21.125Z" fill="#542087"/>
</svg>
